<?xml version="1.0" encoding="utf-8"?>
<!-- Generator: Adobe Illustrator 26.0.3, SVG Export Plug-In . SVG Version: 6.00 Build 0)  -->
<svg version="1.1" id="Layer_1" xmlns="http://www.w3.org/2000/svg" xmlns:xlink="http://www.w3.org/1999/xlink" x="0px" y="0px"
	 viewBox="0 0 228 70" style="enable-background:new 0 0 228 70;" xml:space="preserve">
<style type="text/css">
	.st0{fill:#FFFFFF;}
	.st1{fill:none;stroke:#64BDAD;stroke-width:4;stroke-miterlimit:10;}
</style>
<g>
	<g>
		<path class="st0" d="M76.6,12.1c0-0.4,0.1-0.8,0.2-1.2c0.2-0.4,0.4-0.7,0.7-1c0.3-0.3,0.6-0.5,1-0.7C78.9,9.1,79.3,9,79.7,9h11.9
			c0.4,0,0.8,0.1,1.2,0.3c0.4,0.2,0.7,0.4,1,0.7s0.5,0.6,0.7,1c0.2,0.4,0.2,0.8,0.2,1.2v2.8h-3.1v-2.8H79.7v15.6h11.9v-2.8h3.1v2.8
			c0,0.4-0.1,0.8-0.2,1.2c-0.2,0.4-0.4,0.7-0.7,1s-0.6,0.5-1,0.7c-0.4,0.2-0.8,0.2-1.2,0.2H79.7c-0.4,0-0.8-0.1-1.2-0.2
			c-0.4-0.2-0.7-0.4-1-0.7c-0.3-0.3-0.5-0.6-0.7-1c-0.2-0.4-0.2-0.8-0.2-1.2V12.1z"/>
		<path class="st0" d="M113.4,27.9c0,0.4-0.1,0.8-0.2,1.2c-0.2,0.4-0.4,0.7-0.6,1c-0.3,0.3-0.6,0.5-0.9,0.6
			c-0.4,0.2-0.7,0.2-1.2,0.2h-8.1c-0.4,0-0.8-0.1-1.2-0.2c-0.4-0.2-0.7-0.4-1-0.6c-0.3-0.3-0.5-0.6-0.6-1c-0.2-0.4-0.2-0.8-0.2-1.2
			V17.6c0-0.4,0.1-0.8,0.2-1.2c0.2-0.4,0.4-0.7,0.6-1c0.3-0.3,0.6-0.5,1-0.6c0.4-0.2,0.8-0.2,1.2-0.2h8.1c0.4,0,0.8,0.1,1.2,0.2
			s0.7,0.4,0.9,0.6c0.3,0.3,0.5,0.6,0.6,1c0.2,0.4,0.2,0.8,0.2,1.2V27.9z M102.4,17.6v10.2h8.1V17.6H102.4z"/>
		<path class="st0" d="M132.8,30.9h-3V17.6h-8.4v13.2h-3V14.6h3v2.9c0-0.4,0.1-0.8,0.3-1.1c0.2-0.4,0.4-0.7,0.6-0.9
			c0.3-0.3,0.6-0.5,0.9-0.6c0.4-0.1,0.7-0.2,1.1-0.2h5.4c0.4,0,0.8,0.1,1.2,0.2c0.4,0.2,0.7,0.4,1,0.6c0.3,0.3,0.5,0.6,0.6,1
			c0.2,0.4,0.2,0.8,0.2,1.2V30.9z"/>
		<path class="st0" d="M137.8,17.6c0-0.4,0.1-0.8,0.2-1.2c0.2-0.4,0.4-0.7,0.6-1c0.3-0.3,0.6-0.5,1-0.6c0.4-0.2,0.8-0.2,1.2-0.2h8.4
			c0.4,0,0.8,0.1,1.2,0.2c0.4,0.2,0.7,0.4,1,0.6c0.3,0.3,0.5,0.6,0.6,1c0.2,0.4,0.2,0.8,0.2,1.2v19.8h-3V28c0,0.4-0.1,0.8-0.3,1.1
			c-0.2,0.3-0.4,0.6-0.7,0.9c-0.3,0.3-0.6,0.5-0.9,0.6s-0.7,0.2-1.1,0.2h-5.4c-0.4,0-0.8-0.1-1.2-0.2c-0.4-0.2-0.7-0.4-1-0.6
			c-0.3-0.3-0.5-0.6-0.6-1c-0.2-0.4-0.2-0.8-0.2-1.2V17.6z M149.1,27.9V17.6h-8.4v10.2H149.1z"/>
		<path class="st0" d="M157.1,14.6h3v13.2h8.4V14.6h3v16.2h-3v-2.7c0,0.4-0.1,0.7-0.3,1.1s-0.4,0.6-0.7,0.9s-0.6,0.4-0.9,0.6
			c-0.3,0.1-0.7,0.2-1.1,0.2h-5.4c-0.4,0-0.8-0.1-1.2-0.2c-0.4-0.2-0.7-0.4-1-0.6c-0.3-0.3-0.5-0.6-0.6-1c-0.2-0.4-0.2-0.8-0.2-1.2
			V14.6z"/>
		<path class="st0" d="M190.2,24.3h-10.7v3.6h10.7v3h-10.7c-0.4,0-0.8-0.1-1.2-0.2c-0.4-0.2-0.7-0.4-1-0.6c-0.3-0.3-0.5-0.6-0.6-1
			c-0.2-0.4-0.2-0.8-0.2-1.2V17.6c0-0.4,0.1-0.8,0.2-1.2c0.2-0.4,0.4-0.7,0.6-1c0.3-0.3,0.6-0.5,1-0.6c0.4-0.2,0.8-0.2,1.2-0.2h7.7
			c0.4,0,0.8,0.1,1.2,0.2c0.4,0.2,0.7,0.4,1,0.6c0.3,0.3,0.5,0.6,0.6,1c0.2,0.4,0.2,0.8,0.2,1.2V24.3z M179.4,17.6v3.6h7.7v-3.6
			H179.4z"/>
		<path class="st0" d="M205,27.9v-3.8h-7.1c-0.4,0-0.8-0.1-1.2-0.2c-0.4-0.2-0.7-0.4-1-0.6s-0.5-0.6-0.6-1c-0.2-0.4-0.2-0.8-0.2-1.2
			v-3.5c0-0.4,0.1-0.8,0.2-1.2c0.2-0.4,0.4-0.7,0.6-1c0.3-0.3,0.6-0.5,1-0.6c0.4-0.2,0.8-0.2,1.2-0.2h9.5v3h-9.5v3.5h7.1
			c0.4,0,0.8,0.1,1.2,0.2c0.4,0.2,0.7,0.4,1,0.6c0.3,0.3,0.5,0.6,0.6,1c0.2,0.4,0.2,0.8,0.2,1.2v3.8c0,0.4-0.1,0.8-0.2,1.2
			c-0.2,0.4-0.4,0.7-0.6,1s-0.6,0.5-1,0.6c-0.4,0.2-0.7,0.2-1.2,0.2h-10.1v-3H205z"/>
		<path class="st0" d="M211.7,14.6h4v-5h3v5h5.3v3h-5.3v10.2h5.3v3h-5.3c-0.4,0-0.8-0.1-1.2-0.2c-0.4-0.2-0.7-0.4-1-0.6
			s-0.5-0.6-0.6-1c-0.2-0.4-0.2-0.8-0.2-1.2V17.6h-4V14.6z"/>
		<path class="st0" d="M76.6,39.5h15.9v3.1H79.7v6.2h10.9V52H79.7v6.2h12.8v3.1H76.6V39.5z"/>
		<path class="st0" d="M99.9,38.9v22.5h-3V38.9H99.9z"/>
		<path class="st0" d="M118.6,54.8h-10.7v3.6h10.7v3h-10.7c-0.4,0-0.8-0.1-1.2-0.2c-0.4-0.2-0.7-0.4-1-0.6c-0.3-0.3-0.5-0.6-0.6-1
			c-0.2-0.4-0.2-0.8-0.2-1.2V48.1c0-0.4,0.1-0.8,0.2-1.2c0.2-0.4,0.4-0.7,0.6-1c0.3-0.3,0.6-0.5,1-0.6c0.4-0.2,0.8-0.2,1.2-0.2h7.7
			c0.4,0,0.8,0.1,1.2,0.2c0.4,0.2,0.7,0.4,1,0.6c0.3,0.3,0.5,0.6,0.6,1c0.2,0.4,0.2,0.8,0.2,1.2V54.8z M107.9,48.1v3.6h7.7v-3.6
			H107.9z"/>
		<path class="st0" d="M126.6,48.1v10.2h7.7v-2.7h3v2.7c0,0.4-0.1,0.8-0.2,1.2c-0.2,0.4-0.4,0.7-0.6,1c-0.3,0.3-0.6,0.5-1,0.6
			c-0.4,0.2-0.8,0.2-1.2,0.2h-7.7c-0.4,0-0.8-0.1-1.2-0.2c-0.4-0.2-0.7-0.4-1-0.6c-0.3-0.3-0.5-0.6-0.6-1c-0.2-0.4-0.2-0.8-0.2-1.2
			V48.1c0-0.4,0.1-0.8,0.2-1.2c0.2-0.4,0.4-0.7,0.6-1c0.3-0.3,0.6-0.5,1-0.6c0.4-0.2,0.8-0.2,1.2-0.2h7.7c0.4,0,0.8,0.1,1.2,0.2
			c0.4,0.2,0.7,0.4,1,0.6c0.3,0.3,0.5,0.6,0.6,1c0.2,0.4,0.2,0.8,0.2,1.2v2.7h-3v-2.7H126.6z"/>
		<path class="st0" d="M141.4,45.1h4v-5h3v5h5.3v3h-5.3v10.2h5.3v3h-5.3c-0.4,0-0.8-0.1-1.2-0.2c-0.4-0.2-0.7-0.4-1-0.6
			s-0.5-0.6-0.6-1c-0.2-0.4-0.2-0.8-0.2-1.2V48.1h-4V45.1z"/>
		<path class="st0" d="M161.7,48.1v13.2h-3V45.1h3V48c0-0.4,0.1-0.8,0.3-1.1c0.2-0.4,0.4-0.7,0.6-0.9c0.3-0.3,0.6-0.5,0.9-0.6
			c0.4-0.1,0.7-0.2,1.1-0.2h3.2c0.4,0,0.8,0.1,1.2,0.2s0.7,0.4,1,0.6c0.3,0.3,0.5,0.6,0.6,1c0.2,0.4,0.2,0.8,0.2,1.2v2.7h-3v-2.7
			H161.7z"/>
		<path class="st0" d="M174.6,38.9h3.3V42h-3.3V38.9z M177.7,45.1v16.2h-3V45.1H177.7z"/>
		<path class="st0" d="M185.9,48.1v10.2h7.7v-2.7h3v2.7c0,0.4-0.1,0.8-0.2,1.2c-0.2,0.4-0.4,0.7-0.6,1c-0.3,0.3-0.6,0.5-1,0.6
			c-0.4,0.2-0.8,0.2-1.2,0.2h-7.7c-0.4,0-0.8-0.1-1.2-0.2c-0.4-0.2-0.7-0.4-1-0.6c-0.3-0.3-0.5-0.6-0.6-1c-0.2-0.4-0.2-0.8-0.2-1.2
			V48.1c0-0.4,0.1-0.8,0.2-1.2c0.2-0.4,0.4-0.7,0.6-1c0.3-0.3,0.6-0.5,1-0.6c0.4-0.2,0.8-0.2,1.2-0.2h7.7c0.4,0,0.8,0.1,1.2,0.2
			c0.4,0.2,0.7,0.4,1,0.6c0.3,0.3,0.5,0.6,0.6,1c0.2,0.4,0.2,0.8,0.2,1.2v2.7h-3v-2.7H185.9z"/>
	</g>
</g>
<path class="st1" d="M4.8,36.3L33.8,7.1c1-1,2.7-1,3.7,0l16,16c1,1,1,2.7,0,3.7L39.8,40.5c-1,1-2.7,1-3.7,0l-2-2"/>
<path class="st1" d="M10,42l23.2-22.9c1-1,2.7-1,3.7,0l7.3,7.5"/>
<path class="st1" d="M67.8,35.3L38.8,64.4c-1,1-2.7,1-3.7,0l-16-16c-1-1-1-2.7,0-3.7L32.8,31c1-1,2.7-1,3.7,0l1.8,1.8"/>
<path class="st1" d="M62.6,29.6L39.5,52.4c-1,1-2.7,1-3.7,0l-7.6-7.7"/>
</svg>
